<svg width="160" height="30" viewBox="0 0 160 30" fill="none" xmlns="http://www.w3.org/2000/svg">
<path d="M0.943459 29H8.18955V20.2671H17.3155V14.8325H8.18955V10.0815H18.2726V4.33936H0.943459V29ZM30.5608 29.4785C36.9183 29.4785 40.6268 25.77 40.6268 19.3955V19.3613C40.6268 13.1235 36.8157 9.3125 30.5608 9.3125C24.3401 9.3125 20.4949 13.1577 20.4949 19.3613V19.3955C20.4949 25.7529 24.2205 29.4785 30.5608 29.4785ZM30.5608 24.2832C28.7322 24.2832 27.6727 22.4888 27.6727 19.4126V19.3784C27.6727 16.3877 28.7664 14.5078 30.5608 14.5078C32.3553 14.5078 33.449 16.3877 33.449 19.3784V19.4126C33.449 22.4717 32.3895 24.2832 30.5608 24.2832ZM52.5562 29.4785C58.9136 29.4785 62.6221 25.77 62.6221 19.3955V19.3613C62.6221 13.1235 58.811 9.3125 52.5562 9.3125C46.3354 9.3125 42.4902 13.1577 42.4902 19.3613V19.3955C42.4902 25.7529 46.2158 29.4785 52.5562 29.4785ZM52.5562 24.2832C50.7275 24.2832 49.668 22.4888 49.668 19.4126V19.3784C49.668 16.3877 50.7617 14.5078 52.5562 14.5078C54.3506 14.5078 55.4443 16.3877 55.4443 19.3784V19.4126C55.4443 22.4717 54.3848 24.2832 52.5562 24.2832ZM72.0393 29.2734C74.7907 29.2734 76.739 28.1113 77.5593 26.1118H77.9011V29H84.9079V2.71582H77.9011V12.9014H77.5593C76.6706 10.7651 74.6711 9.51758 72.0393 9.51758C67.1857 9.51758 64.4855 13.0552 64.4855 19.3784V19.4126C64.4855 25.6846 67.3054 29.2734 72.0393 29.2734ZM74.7565 23.6338C72.8425 23.6338 71.5949 22.0444 71.5949 19.4126V19.3784C71.5949 16.7808 72.8596 15.1572 74.7565 15.1572C76.6535 15.1572 77.9353 16.7466 77.9353 19.3955V19.4297C77.9353 22.0786 76.6877 23.6338 74.7565 23.6338ZM88.3778 29H105.604V23.9414H97.7089V23.5996L105.228 13.9609V9.79102H88.6513V14.8496H96.9398V15.1914L88.3778 25.4282V29ZM112.407 7.56934C114.372 7.56934 115.979 6.03125 115.979 4.08301C115.979 2.11768 114.372 0.57959 112.407 0.57959C110.459 0.57959 108.835 2.11768 108.835 4.08301C108.835 6.03125 110.459 7.56934 112.407 7.56934ZM108.903 29H115.91V9.79102H108.903V29ZM119.825 29H126.831V2.71582H119.825V29ZM130.917 29H137.923V2.71582H130.917V29ZM147.033 29.2734C149.46 29.2734 151.51 28.2651 152.245 26.7441H152.587V29H159.457V15.9263C159.457 11.7222 156.33 9.3125 150.844 9.3125C145.324 9.3125 141.889 11.7222 141.598 15.4307L141.581 15.6528H147.836L147.87 15.5674C148.195 14.7642 149.032 14.3198 150.417 14.3198C151.767 14.3198 152.587 14.9351 152.587 15.9263V17.3447L148.793 17.5669C143.7 17.8745 140.915 19.9253 140.915 23.4116V23.4458C140.915 26.9492 143.359 29.2734 147.033 29.2734ZM147.597 22.916V22.8818C147.597 21.959 148.451 21.3438 149.921 21.2412L152.587 21.0703V22.1812C152.587 23.5142 151.34 24.5566 149.767 24.5566C148.434 24.5566 147.597 23.9072 147.597 22.916Z" fill="url(#paint0_linear_83_659)"/>
<defs>
<linearGradient id="paint0_linear_83_659" x1="161" y1="17" x2="-2" y2="17" gradientUnits="userSpaceOnUse">
<stop stop-color="#1A7BD7"/>
<stop offset="1" stop-color="#2091EE"/>
</linearGradient>
</defs>
</svg>
